<svg xmlns="http://www.w3.org/2000/svg" viewBox="0 0 348.69 65.82"><defs><style>.cls-1{fill:#094220;}.cls-2{fill:#20bd67;}.cls-3{fill:#189450;}.cls-4{fill:#10703c;}</style></defs><g id="Layer_2" data-name="Layer 2"><g id="Layer_1-2" data-name="Layer 1"><path class="cls-1" d="M130.16,15.14h13.38A18.75,18.75,0,0,1,152,17a13.72,13.72,0,0,1,5.73,5.15,14.52,14.52,0,0,1,2,7.74,14.47,14.47,0,0,1-2,7.74A13.65,13.65,0,0,1,152,42.75a18.75,18.75,0,0,1-8.47,1.83H130.16ZM143.2,39a9.89,9.89,0,0,0,7.05-2.46,8.71,8.71,0,0,0,2.63-6.67,8.71,8.71,0,0,0-2.63-6.67,9.89,9.89,0,0,0-7.05-2.46H137V39Z"/><path class="cls-1" d="M173.89,22.46a11.81,11.81,0,0,1,4.61-.84v6.05c-.73-.05-1.22-.08-1.48-.08a6,6,0,0,0-4.41,1.58A6.35,6.35,0,0,0,171,33.9V44.58h-6.56V22h6.26v3A7.37,7.37,0,0,1,173.89,22.46Z"/><path class="cls-1" d="M199.49,24.12c1.88,1.67,2.81,4.18,2.81,7.55V44.58h-6.14V41.77q-1.84,3.15-6.9,3.15a10.72,10.72,0,0,1-4.52-.88,6.81,6.81,0,0,1-2.92-2.44,6.4,6.4,0,0,1-1-3.54,5.89,5.89,0,0,1,2.38-5q2.37-1.82,7.34-1.81h5.21a4.17,4.17,0,0,0-1.3-3.3,5.76,5.76,0,0,0-3.91-1.16,11.43,11.43,0,0,0-3.56.57,9.31,9.31,0,0,0-3,1.54l-2.36-4.59a14.19,14.19,0,0,1,4.44-2,19.73,19.73,0,0,1,5.32-.71Q196.68,21.62,199.49,24.12Zm-5.6,15.61a4.25,4.25,0,0,0,1.85-2.3V35.12h-4.5q-4,0-4,2.65a2.36,2.36,0,0,0,1,2,4.46,4.46,0,0,0,2.72.73A5.78,5.78,0,0,0,193.89,39.73Z"/><path class="cls-1" d="M215.43,22.46h5.8v5H215.6V44.58H209V27.5h-3.5v-5H209v-1a8.24,8.24,0,0,1,2.29-6.14A8.75,8.75,0,0,1,217.78,13a12,12,0,0,1,2.8.32,6.81,6.81,0,0,1,2.21.9L221.07,19a4.51,4.51,0,0,0-2.65-.8c-2,0-3,1.09-3,3.28Z"/><path class="cls-1" d="M239.11,43.49a6.54,6.54,0,0,1-2.37,1.07,12,12,0,0,1-3,.36,8.85,8.85,0,0,1-6.25-2.06,7.89,7.89,0,0,1-2.21-6.06V27.5h-3.49v-5h3.49V17h6.57v5.51h5.63v5h-5.63v9.22a3.1,3.1,0,0,0,.73,2.21,2.73,2.73,0,0,0,2.09.77,4.24,4.24,0,0,0,2.65-.84Z"/><path class="cls-1" d="M287.78,15.14l-9.63,29.44h-7.32l-6.48-19.94-6.69,19.94h-7.27l-9.68-29.44h7.07l6.64,20.69,6.94-20.69h6.31L274.41,36l6.85-20.86Z"/><path class="cls-1" d="M291.86,17.75a3.58,3.58,0,0,1,0-5.22,4.18,4.18,0,0,1,2.95-1,4.24,4.24,0,0,1,2.94,1A3.22,3.22,0,0,1,298.89,15a3.54,3.54,0,0,1-1.14,2.71,4.1,4.1,0,0,1-2.94,1.08A4.18,4.18,0,0,1,291.86,17.75Zm-.33,4.2h6.56V44.58h-6.56Z"/><path class="cls-1" d="M306.29,44.23A14.72,14.72,0,0,1,302,42.48l2.19-4.71a14.06,14.06,0,0,0,3.66,1.58,15.57,15.57,0,0,0,4.2.61q4.17,0,4.17-2.06a1.46,1.46,0,0,0-1.14-1.39,16.92,16.92,0,0,0-3.49-.72,32.52,32.52,0,0,1-4.58-1,7.05,7.05,0,0,1-3.14-1.93,5.51,5.51,0,0,1-1.32-3.95,6.17,6.17,0,0,1,1.24-3.81,8,8,0,0,1,3.62-2.59,15.34,15.34,0,0,1,5.61-.92,22.14,22.14,0,0,1,4.78.52,13.58,13.58,0,0,1,3.93,1.45l-2.19,4.67A13.06,13.06,0,0,0,313,26.58a6.64,6.64,0,0,0-3.15.59,1.73,1.73,0,0,0-1.05,1.51A1.51,1.51,0,0,0,310,30.16a20.09,20.09,0,0,0,3.62.79,39.19,39.19,0,0,1,4.54,1,6.78,6.78,0,0,1,3.07,1.92,5.41,5.41,0,0,1,1.31,3.87,5.92,5.92,0,0,1-1.27,3.74A8.09,8.09,0,0,1,317.54,44a16.43,16.43,0,0,1-5.74.9A22.13,22.13,0,0,1,306.29,44.23Z"/><path class="cls-1" d="M348.57,35.12H331.45a5.28,5.28,0,0,0,2.18,3.32,7.2,7.2,0,0,0,4.29,1.22,8.72,8.72,0,0,0,3.14-.52,7.51,7.51,0,0,0,2.54-1.67l3.49,3.79q-3.19,3.66-9.33,3.66A14.87,14.87,0,0,1,331,43.43a11,11,0,0,1-4.54-4.15,11.35,11.35,0,0,1-1.6-6,11.59,11.59,0,0,1,1.58-6,11.1,11.1,0,0,1,4.33-4.16,12.68,12.68,0,0,1,6.17-1.49,12.52,12.52,0,0,1,6,1.43,10.49,10.49,0,0,1,4.23,4.1,12.26,12.26,0,0,1,1.53,6.2Q348.69,33.49,348.57,35.12Zm-15.36-7.28a5.39,5.39,0,0,0-1.85,3.45h11.15a5.47,5.47,0,0,0-1.85-3.43,5.57,5.57,0,0,0-3.7-1.28A5.67,5.67,0,0,0,333.21,27.84Z"/><polygon class="cls-2" points="47.28 22.95 47.28 0 0 42.86 0 65.82 47.28 22.95"/><polygon class="cls-3" points="78.32 22.95 78.32 0 31.05 42.86 31.05 65.82 78.32 22.95"/><polygon class="cls-4" points="109.37 22.95 109.37 0 62.09 42.86 62.09 65.82 109.37 22.95"/></g></g></svg>